<svg xmlns="http://www.w3.org/2000/svg" viewBox="0 0 64 64">
  <circle cx="32" cy="32" r="30" fill="#25D366"/>
  <path fill="#fff" d="M32.1 13.5A18.1 18.1 0 0 0 16.6 40.9L15 50.5l9.8-2.4a18.1 18.1 0 1 0 7.3-34.6Zm10.7 25.6c-.4 1.2-2.5 2.3-3.6 2.5-.9.1-2.1.2-3.4-.2-.8-.3-1.8-.6-3.1-1.1-5.5-2.4-9.1-7.9-9.4-8.3-.3-.4-2.2-3-2.2-5.7s1.4-4 1.9-4.6c.5-.6 1.1-.7 1.5-.7h1.1c.3 0 .8-.1 1.3 1 .5 1.1 1.6 3.9 1.7 4.2.1.3.2.6.1 1-.2.4-.3.6-.6 1-.3.4-.6.8-.9 1-.3.3-.6.6-.2 1.2.3.6 1.5 2.4 3.2 3.9 2.2 2 4.1 2.6 4.6 2.9.6.3.9.2 1.2-.1.3-.4 1.4-1.6 1.8-2.2.4-.6.7-.5 1.3-.3.5.2 3.3 1.6 3.9 1.8.6.3.9.4 1.1.7.1.2.1 1.4-.3 2.6Z"/>
</svg>
